<svg width="32" height="40" viewBox="0 0 32 40" fill="none" xmlns="http://www.w3.org/2000/svg">
<path d="M29.2067 4.2039L31.7084 33.7318C31.8686 35.6224 30.4482 37.3056 28.5577 37.4658L6.69042 39.3184C4.79985 39.4786 3.11658 38.0583 2.9564 36.1677L0.454746 6.63982C0.294573 4.74925 1.7149 3.06598 3.60547 2.90581L25.4727 1.05317C27.3624 0.882072 29.0456 2.3024 29.2067 4.2039Z" fill="#1A1A1A"/>
<path d="M26.9763 23.4785C26.9893 23.6315 26.9148 23.7919 26.7783 23.8695C26.58 23.9964 26.3212 23.9302 26.1943 23.7318C25.8256 23.1467 25.176 22.3652 24.119 21.9705C22.7776 21.4678 21.3927 21.7502 21.2938 22.0118C21.2665 22.0801 21.419 22.3203 21.5084 22.4668C21.7503 22.8536 22.0698 23.3769 21.9049 24.0292C21.7391 24.6706 21.2077 25.0238 20.9584 25.1991C19.2905 26.2979 14.7584 26.9791 12.422 26.1644C11.6393 25.8895 11.1642 25.4785 10.974 24.9223C10.7938 24.3542 10.9944 23.8639 11.1596 23.4757C11.2976 23.1558 11.3493 22.9863 11.2863 22.8926C11.0126 22.5196 9.571 22.6527 8.46983 23.2963C7.49425 23.8633 6.97449 24.7438 6.72035 25.3817C6.62866 25.5986 6.3838 25.6964 6.16783 25.6156C5.95094 25.5239 5.85314 25.2791 5.93391 25.0631C6.24436 24.3104 6.85951 23.2567 8.04532 22.5728C9.20927 21.8909 11.2734 21.4408 11.9715 22.4053C12.321 22.893 12.1104 23.3951 11.947 23.8052C11.8081 24.1142 11.7001 24.3985 11.7779 24.6671C11.8968 25.0312 12.3443 25.2465 12.696 25.3707C14.749 26.0883 19.0225 25.4731 20.4921 24.5011C20.7423 24.3368 21.0116 24.1379 21.085 23.8345C21.1592 23.5421 21.0168 23.29 20.7877 22.9241C20.5704 22.5683 20.3167 22.1716 20.4982 21.7159C20.8776 20.7372 22.9149 20.6197 24.4157 21.1859C25.6887 21.6614 26.4833 22.5957 26.916 23.2855C26.9543 23.3483 26.9708 23.4129 26.9763 23.4785Z" fill="#F8F8F8"/>
<path d="M13.1723 25.9247L13.8157 33.5197C13.8352 33.7492 13.6661 33.9617 13.4256 33.982C13.1962 34.0015 12.9837 33.8324 12.9633 33.5919L12.3199 25.9969C12.3004 25.7674 12.4695 25.5549 12.71 25.5346C12.9504 25.5142 13.1528 25.6952 13.1723 25.9247Z" fill="#F8F8F8"/>
<path d="M20.7673 25.2813L21.4108 32.8763C21.4302 33.1058 21.2611 33.3183 21.0207 33.3386C20.7912 33.3581 20.5788 33.189 20.5584 32.9486L19.9149 25.3535C19.8955 25.124 20.0646 24.9116 20.305 24.8912C20.5345 24.8717 20.7479 25.0518 20.7673 25.2813Z" fill="#F8F8F8"/>
<path d="M26.2265 14.6266C26.2321 14.6921 26.2267 14.7586 26.1995 14.827C25.889 15.5797 25.2739 16.6334 24.0881 17.3173C22.7039 18.1279 20.6759 18.3548 20.1373 17.4539C19.8926 17.0343 20.0651 16.6015 20.2194 16.2142C20.3837 15.815 20.4817 15.5425 20.3592 15.2667C20.2231 14.9591 19.8686 14.802 19.6626 14.7094C18.0505 13.9985 13.7344 14.111 11.8314 15.1637C11.5056 15.3454 11.1016 15.6438 11.0447 16.0119C11.0095 16.246 10.7921 16.4075 10.5689 16.3714C10.3348 16.3362 10.1733 16.1187 10.2094 15.8955C10.2924 15.3161 10.7015 14.8192 11.4278 14.4275C13.6048 13.2304 18.1749 13.1294 20.0049 13.943C20.2792 14.0628 20.8625 14.3216 21.1338 14.926C21.4061 15.5413 21.1801 16.1218 21.0058 16.5328C20.9423 16.6922 20.8334 16.9656 20.8708 17.0175C21.0123 17.2586 22.425 17.3041 23.6626 16.5828C24.6382 16.0159 25.158 15.1354 25.4121 14.4975C25.5038 14.2806 25.7487 14.1828 25.9646 14.2635C26.1241 14.3271 26.2136 14.4736 26.2265 14.6266Z" fill="#F8F8F8"/>
<path d="M10.7746 17.6308C10.7894 17.8056 10.694 17.9788 10.5247 18.0592C7.89136 19.1959 5.62447 17.2526 5.21736 16.6047C5.09049 16.4063 5.15662 16.1476 5.355 16.0207C5.55337 15.8938 5.81213 15.96 5.939 16.1583C6.11792 16.4514 7.95473 18.2549 10.1948 17.2837C10.4069 17.1887 10.6575 17.2885 10.7525 17.5006C10.7562 17.5443 10.7709 17.5871 10.7746 17.6308Z" fill="#F8F8F8"/>
<path d="M11.5641 6.94245L12.2076 14.5375C12.227 14.767 12.0579 14.9795 11.8175 14.9998C11.588 15.0193 11.3755 14.8502 11.3552 14.6097L10.7117 7.01467C10.6922 6.78517 10.8614 6.57273 11.1018 6.55236C11.3431 6.54292 11.5446 6.71296 11.5641 6.94245Z" fill="#F8F8F8"/>
<path d="M19.1591 6.29905L19.8026 13.8941C19.8221 14.1236 19.6529 14.3361 19.4125 14.3564C19.183 14.3759 18.9706 14.2068 18.9502 13.9663L18.3068 6.37126C18.2873 6.14177 18.4564 5.92933 18.6968 5.90896C18.9273 5.90044 19.1397 6.06955 19.1591 6.29905Z" fill="#F8F8F8"/>
</svg>
