<svg width="59" height="21" viewBox="0 0 59 21" fill="none" xmlns="http://www.w3.org/2000/svg">
<path d="M54.704 2.92961L51.1262 2.7712C50.0174 2.7221 49.1578 2.99328 48.6291 4.06939L41.0573 19.3565L45.9269 19.5721C45.9269 19.5721 46.8197 17.5156 47.0228 17.0665L52.9669 17.3297C53.0892 17.9307 53.4142 19.9036 53.4142 19.9036L57.7237 20.0944L54.704 2.92961ZM48.5027 13.6502C48.9234 12.6839 50.5422 8.97594 50.5422 8.97594C50.5422 8.97594 50.9868 7.98774 51.2428 7.3806L51.4861 8.86884C51.4861 8.86884 52.21 12.9554 52.3435 13.8203L48.5027 13.6502Z" fill="#1A1A1A"/>
<path d="M35.4287 6.79504C35.3818 7.5947 36.3645 8.16506 37.9413 9.02516C40.5625 10.3553 41.7317 11.8845 41.6228 13.8268C41.4321 17.3574 38.1765 19.4925 33.2955 19.2763C31.2275 19.1619 29.2344 18.6499 28.1802 18.145L29.0007 14.356L29.583 14.6566C31.0641 15.3521 32.0469 15.6591 33.9101 15.7416C35.2361 15.8003 36.6883 15.3377 36.7498 14.2066C36.7947 13.4526 36.2126 12.8886 34.4435 11.9741C32.719 11.0846 30.4474 9.62107 30.5785 7.17587C30.7477 3.87334 34.0849 1.70753 38.6572 1.90998C40.4519 1.98944 41.8874 2.41951 42.7862 2.81436L41.9945 6.46728L41.5916 6.25474C40.7495 5.87385 39.6668 5.49376 38.1569 5.44981C36.3394 5.36934 35.4596 6.09775 35.4287 6.79504Z" fill="#1A1A1A"/>
<path d="M28.9049 1.77589L25.2374 18.6446L20.6193 18.4401L24.264 1.5704L28.9049 1.77589Z" fill="#1A1A1A"/>
<path d="M11.8739 9.79545C10.5048 5.79489 6.95737 2.36219 1.41646 0.753911L1.4888 0.413511L8.67883 0.731862C9.64894 0.809175 10.4126 1.15222 10.6409 2.20457L11.8739 9.79545Z" fill="#1A1A1A"/>
<path d="M22.3889 1.49878L14.3329 18.1503L9.42907 17.9331L5.90723 3.57509C8.80618 5.61615 11.2097 8.7577 12.0082 10.9005L12.4223 12.6712L17.4741 1.26972L22.3894 1.48735L22.3889 1.49878Z" fill="#1A1A1A"/>
</svg>
