<svg width="41" height="41" viewBox="0 0 41 41" fill="none" xmlns="http://www.w3.org/2000/svg">
<g clip-path="url(#clip0_302_2207)">
<path d="M26.1519 36.6923C25.4855 36.4861 24.9758 35.9421 24.8099 35.2608C24.6994 34.8684 24.7527 34.5858 25.2728 33.4292C27.2231 29.0919 28.008 24.3126 27.545 19.5773C27.2164 14.9696 25.7157 10.5693 23.1646 6.72162C22.7853 6.07388 22.4392 5.45423 22.1352 4.78465C22.1779 4.19387 22.4239 3.63221 22.8722 3.26974C23.5314 2.84305 24.3817 2.84827 25.0471 3.22455C25.5234 3.74046 25.9384 4.26156 26.2998 4.87992C28.2184 7.90184 29.6317 11.2162 30.4842 14.6927C31.0723 17.4397 31.3575 20.2586 31.3333 23.0729C31.1618 26.7032 30.397 30.2601 29.045 33.6349C28.2295 35.6819 27.7474 36.5571 27.1645 36.6065L26.1519 36.6923Z" fill="#1A1A1A"/>
<path d="M19.293 31.8185C19.1842 32.7239 19.8119 33.567 20.7072 33.7384L20.7007 33.6616C22.0079 33.9526 22.8337 32.9401 23.8768 29.9314C25.9197 24.1338 25.6897 17.7717 23.2334 12.1236C22.4304 10.3065 21.4052 8.60093 20.1628 7.0683C19.2798 6.49413 18.1689 6.69641 17.5576 7.50534C17.0601 8.38188 17.1475 8.68352 18.2778 10.5347C19.8218 12.8916 20.8663 15.5535 21.3189 18.3429C22.0032 22.2251 21.5535 26.2189 20.0382 29.8548C19.6815 30.7503 19.2774 31.6344 19.293 31.8185Z" fill="#1A1A1A"/>
<path d="M14.2911 30.3003C14.5042 30.5122 14.7619 30.6737 15.0455 30.7732L15.0377 30.6811C15.3255 30.7958 15.635 30.8005 15.9239 30.7451C16.7406 30.5369 17.1224 30.1182 17.8143 28.4372C18.9424 25.8848 19.3835 23.0661 19.0868 20.2944C18.8721 17.5659 17.9689 14.9364 16.4615 12.6519C15.4862 10.9884 14.8936 10.5596 13.9117 10.6428C13.4463 10.6205 13.031 10.8256 12.7681 11.1878C12.0174 11.9931 12.0512 12.392 13.2122 14.2406C14.5096 16.1843 15.2935 18.425 15.4908 20.7536C15.6881 23.0822 15.2923 25.4228 14.3404 27.5571C13.754 28.843 13.7878 29.2419 13.8138 29.5487C13.9149 29.8317 14.078 30.0885 14.2911 30.3003Z" fill="#1A1A1A"/>
<path d="M8.6421 26.8182C8.88703 27.3382 9.32101 27.7187 9.84808 27.9212L9.86342 27.9199C10.8099 28.1488 11.6698 27.7205 12.3522 26.4729C13.3003 24.7245 13.716 22.7368 13.5481 20.7549C13.3802 18.773 12.636 16.8836 11.4072 15.3195C10.5414 14.2186 9.9285 13.9151 9.11305 14.1387C8.07007 14.4125 7.5037 15.3876 7.75435 16.3398C7.98471 16.7434 8.24466 17.1294 8.53207 17.4946C9.37479 18.5048 9.83683 19.7636 9.83992 21.0768C10.0258 22.359 9.76679 23.6789 9.08809 24.7871C8.55761 25.821 8.44319 26.2942 8.6421 26.8182Z" fill="#1A1A1A"/>
</g>
<defs>
<clipPath id="clip0_302_2207">
<rect width="36.952" height="36.952" fill="white" transform="translate(0.4207 3.38948) rotate(-4.84264)"/>
</clipPath>
</defs>
</svg>
