<svg width="14" height="14" viewBox="0 0 14 14" fill="none" xmlns="http://www.w3.org/2000/svg">
<path d="M6.2384 1.29189C6.46865 0.751636 7.23444 0.751635 7.46469 1.29189L8.84347 4.52703C8.93982 4.75311 9.15277 4.90782 9.39756 4.92959L12.9004 5.24118C13.4854 5.29321 13.722 6.02152 13.2794 6.40744L10.6286 8.71845C10.4434 8.87995 10.3621 9.13029 10.417 9.36982L11.2031 12.7975C11.3344 13.3699 10.7148 13.8201 10.211 13.5183L7.19399 11.7115C6.98316 11.5852 6.71994 11.5852 6.5091 11.7115L3.49208 13.5183C2.98825 13.8201 2.36872 13.3699 2.5 12.7975L3.28611 9.36982C3.34104 9.13029 3.2597 8.87995 3.07446 8.71845L0.423732 6.40744C-0.0189281 6.02152 0.217711 5.29321 0.802673 5.24118L4.30554 4.92959C4.55033 4.90782 4.76327 4.75311 4.85963 4.52703L6.2384 1.29189Z" fill="#FFD166"/>
</svg>
