<svg width="35" height="35" viewBox="0 0 35 35" fill="none" xmlns="http://www.w3.org/2000/svg">
<path d="M12.3647 0L14.2593 4.50757C13.1956 6.45202 12.1985 8.61742 11.2678 11.0038C10.4036 13.3902 9.90504 15.8649 9.77208 18.428L15.2564 19.7538V35H0V24.1288C0 17.8535 1.09687 12.8157 3.2906 9.01516C5.55081 5.12626 8.5755 2.12121 12.3647 0ZM32.1083 0L34.0028 4.50757C32.9392 6.45202 31.9421 8.61742 31.0114 11.0038C30.1472 13.3902 29.6486 15.8649 29.5157 18.428L35 19.7538V35H19.7436V24.1288C19.7436 17.8535 20.8405 12.8157 23.0342 9.01516C25.2944 5.12626 28.3191 2.12121 32.1083 0Z" fill="#CDA582"/>
</svg>
