<svg width="552" height="250" viewBox="0 0 552 250" fill="none" xmlns="http://www.w3.org/2000/svg">
<path d="M273.095 33.3644C283.414 30.2889 293.873 30.1491 304.379 32.3858C306.284 32.8052 308.562 34.2498 310.096 33.3178C311.584 32.4324 312.141 30.0093 313.071 28.2386C316 22.5536 319.439 17.1948 322.74 11.6962C321.531 12.3486 319.3 12.069 319.44 13.7465C319.672 16.4026 318.045 16.822 316.279 17.4744C309.957 19.8975 308.609 19.2451 306.563 12.5815C306.377 11.9292 306.145 11.2768 306.749 10.8108C309.259 8.80708 307.679 6.98975 306.424 4.89282C305.541 6.57036 302.938 7.26934 304.565 9.59925C305.634 11.0904 305.262 12.2088 304.239 13.4203C303.356 14.4455 302.473 15.5172 301.636 16.589C300.846 17.6142 300.056 17.6608 298.986 16.8686C296.337 14.9581 294.292 12.4884 292.479 9.78565C291.921 8.94688 292.014 8.2945 292.665 7.68872C294.663 5.87139 294.106 4.14725 292.572 2.37651C291.921 1.67754 291.456 0.792172 290.945 0H290.48C290.108 1.53774 288.992 2.60951 288.156 3.86766C287.505 4.84623 287.365 5.6384 288.249 6.43057C290.247 8.3411 289.829 10.1118 288.156 11.9758C287.226 13.0009 286.575 14.2591 285.599 15.1445C281.694 18.7791 282.299 18.2665 279.231 14.8183C278.533 14.0261 278.022 13.1407 277.371 12.302C276.86 11.6496 276.674 10.9506 277.232 10.2982C279.324 7.73532 277.278 6.43057 275.744 4.84623C274.443 6.89655 273.048 8.76048 275.558 10.7642C276.163 11.2302 275.977 11.836 275.744 12.535C274.908 14.6319 273.838 16.6356 272.63 18.4995C272.165 19.1985 271.7 19.3849 270.817 19.1519C268.307 18.5461 265.89 17.7074 263.565 16.6356C262.915 16.356 262.403 16.0764 262.543 15.2843C263.054 12.3952 260.869 12.302 258.685 11.603C263.333 18.5461 267.377 25.3961 270.956 32.5256C271.468 33.5974 272.072 33.6906 273.095 33.3644ZM312.932 22.507C313.025 25.1165 312.839 25.3495 309.864 27.2134C309.678 24.6505 310.979 23.3924 312.932 22.507ZM302.566 21.1556C302.984 23.6719 301.59 24.9301 299.684 26.0485C299.591 23.7651 300.334 22.0876 302.566 21.1556ZM290.666 17.8938C293.222 21.109 293.222 24.3243 290.759 28.2386C288.667 23.1128 288.667 23.1128 290.666 17.8938ZM279.091 21.1556C281.787 22.8332 281.787 22.8332 282.066 26.0485C280.114 25.1165 278.952 23.6719 279.091 21.1556ZM268.725 23.1594C270.91 23.9515 272.119 25.3495 272.026 27.8658C269.794 26.9804 268.772 25.4893 268.725 23.1594Z" fill="white"/>
<path d="M35.0026 182.479C34.5843 182.339 34.1659 182.199 33.5616 182.013C33.5151 182.013 33.4686 181.966 33.3757 181.966C33.4221 181.92 33.4686 181.92 33.5151 181.873C33.98 181.64 34.2589 181.547 34.4913 181.407C40.3018 178.798 43.0444 174.278 42.626 167.987C42.2541 162.209 38.7678 158.062 32.7714 156.291C30.819 155.732 28.8667 155.452 26.8214 155.452C17.8964 155.452 8.92497 155.452 0 155.452V155.918C1.58046 156.757 3.30038 156.291 4.97381 156.291C6.27537 156.291 6.55427 156.71 6.55427 157.968C6.50779 175.21 6.50779 192.405 6.55427 209.646C6.55427 210.857 6.27537 211.323 4.97381 211.323C3.30038 211.323 1.62695 210.857 0 211.696V212.162C10.0871 212.162 20.1277 212.209 30.2147 212.162C39.837 212.116 45.0432 207.223 45.694 197.763C46.2983 189.935 42.4866 184.483 35.0026 182.479ZM14.3171 157.083C18.4077 156.477 22.4984 156.058 26.589 156.57C31.8417 157.269 35.0956 160.485 36.1647 165.704C37.8381 173.625 34.0264 180.336 27.1003 181.547C24.4042 182.013 21.6152 181.966 18.9191 181.827C12.9226 181.454 12.9226 181.407 12.9226 175.303V169.245C12.9226 165.843 12.9691 162.488 12.9226 159.087C12.8761 158.015 13.0156 157.269 14.3171 157.083ZM39.1862 200.047C38.396 207.036 33.9335 211.09 26.9608 211.23C23.1026 211.323 19.2445 211.277 15.3863 210.718C13.5734 210.438 12.7367 209.972 12.8296 207.922C13.0156 204.24 12.8761 200.513 12.8761 196.785C12.8761 192.824 12.8761 188.863 12.8761 184.902C12.8761 183.924 12.9226 183.178 14.2242 183.085C18.8726 182.665 23.5675 182.293 28.2159 182.852C34.8632 183.644 38.4889 187.372 39.1862 193.989C39.4186 195.993 39.4186 198.089 39.1862 200.047Z" fill="white"/>
<path d="M288.249 103.215C289.922 89.2824 284.204 78.0056 268.214 75.8154C269.515 75.2563 270.306 74.9301 271.096 74.6039C285.088 68.7325 288.342 50.0932 277.092 40.0279C272.072 35.5545 265.936 34.1565 259.428 34.1099C246.227 34.0633 232.979 34.1099 219.777 34.1099C219.359 34.1099 218.987 34.1099 218.569 34.1099C218.057 34.1565 217.314 33.9701 217.36 34.8555C217.407 35.5545 218.104 35.3215 218.522 35.3215C220.846 35.3681 223.217 35.4147 225.541 35.3215C226.796 35.2749 227.168 35.6477 227.168 36.9058C227.122 64.5852 227.122 92.3112 227.168 119.991C227.168 121.435 226.704 121.761 225.402 121.668C223.217 121.575 221.032 121.622 218.848 121.668C218.29 121.668 217.36 121.342 217.36 122.321C217.314 123.392 218.29 122.973 218.801 122.973C234.42 122.973 250.085 123.159 265.75 122.833C278.766 122.6 286.761 115.657 288.249 103.215ZM276.256 111.277C273.281 117.754 267.889 121.016 261.009 121.482C253.85 121.948 246.692 121.761 239.533 120.596C237.488 120.27 236.791 119.478 236.884 117.381C237.069 111.23 236.93 105.126 236.93 98.9748C236.93 92.684 236.977 86.3933 236.884 80.1025C236.837 78.2851 237.302 77.3998 239.254 77.493C240.277 77.5396 241.346 77.2134 242.369 77.1668C243.019 77.1202 243.438 76.9804 243.391 76.1882C243.345 75.4427 242.927 75.2563 242.276 75.2097C240.974 75.0699 239.719 74.8369 238.418 74.7903C237.116 74.7437 236.884 74.0913 236.884 72.9263C236.93 61.5564 236.884 50.1398 236.884 38.7698C236.884 37.8844 236.791 37.0456 238.092 36.8126C245.437 35.6477 252.781 34.5293 260.172 36.2069C268.493 38.1174 273.002 43.7558 273.792 52.7959C274.071 55.9646 273.885 59.0866 273.095 62.1621C271.235 69.5247 266.401 73.6253 259.103 75.1165C258.359 75.2563 257.29 74.9767 257.383 76.2348C257.476 77.4464 258.452 76.9338 259.103 76.9338C270.027 77.3066 276.813 83.3644 278.162 94.2684C278.952 100.047 278.766 105.825 276.256 111.277Z" fill="white"/>
<path d="M332.687 91.2861C338.08 73.2059 333.338 57.0829 319.114 44.548C306.331 33.2712 291.363 30.9413 274.722 36.0205C276.163 36.9524 276.813 38.164 278.58 37.3718C292.618 31.3606 306.377 37.3252 314.512 47.9031C320.602 55.8714 323.391 65.0046 323.948 74.9767C324.553 86.0205 322.554 96.3653 316.743 105.871C310.236 116.403 296.755 125.443 281.508 120.596C280.16 120.177 279.277 120.783 278.069 121.855C286.203 122.973 291.828 127.819 297.313 132.945C299.358 134.856 301.497 136.719 303.681 138.49C307.121 141.239 310.933 143.383 315.442 143.569C321.485 143.802 327.528 143.709 333.571 143.756C334.082 143.756 334.593 143.663 334.64 143.057C334.733 142.218 334.082 142.265 333.524 142.218C331.061 141.938 328.597 141.845 326.133 141.239C320.509 139.748 316 136.486 311.909 132.619C306.935 127.912 301.636 123.812 294.292 123.812C294.152 123.812 294.013 123.532 293.966 123.486C313.35 120.55 327.016 110.252 332.687 91.2861Z" fill="white"/>
<path d="M231.305 156.291H238.232C232.607 171.575 227.122 186.533 221.404 201.957C215.826 186.533 210.388 171.622 204.949 156.617C207.041 155.965 209.132 156.897 211.364 155.871C207.877 155.126 193.56 155.359 192.212 156.151C194.211 156.99 196.814 155.312 198.162 156.99C199.417 158.528 199.696 160.811 200.44 162.768C201.648 166.17 203.833 169.571 203.833 172.973C203.833 176.375 201.648 179.776 200.393 183.178C198.162 189.282 195.884 195.34 193.467 201.911C187.982 186.813 182.683 172.227 177.337 157.596C176.919 156.524 177.43 156.431 178.313 156.384C179.801 156.244 181.428 156.803 183.241 155.778H163.996C165.205 156.617 166.506 156.477 167.715 156.337C169.528 156.151 170.318 156.85 170.922 158.621C173.526 166.216 176.361 173.765 179.104 181.314C182.869 191.706 186.634 202.097 190.632 213.048C195.42 200.14 200.022 187.791 204.809 174.884C209.504 187.838 213.967 200.186 218.569 212.954C219.034 211.789 219.405 211.044 219.638 210.298C226.006 193.01 232.375 175.769 238.696 158.481C239.301 156.85 240.044 156.198 241.811 156.337C243.159 156.431 244.553 156.617 245.855 155.732H231.305V156.291Z" fill="white"/>
<path d="M333.757 180.895C331.572 163.98 316.743 152.703 300.334 155.592C287.691 157.782 277.464 169.059 276.86 181.594C276.163 195.713 284.483 207.782 297.685 211.277C302.24 212.488 305.959 214.632 309.306 217.801C310.84 219.245 312.42 220.596 314.001 221.948C315.953 223.579 318.091 225.023 320.648 225.163C324.971 225.35 329.341 225.163 333.664 225.117C333.71 225.117 333.71 224.837 333.803 224.324C326.645 224.884 321.81 220.643 316.976 216.263C314.28 213.793 310.933 212.628 306.796 212.582C307.354 212.349 307.4 212.302 307.493 212.302C323.716 210.904 335.802 196.459 333.757 180.895ZM289.364 202.889C285.088 197.158 283.461 190.634 283.507 183.597C283.554 176.281 285.32 169.571 290.061 163.84C298.615 153.402 312.374 153.541 320.881 164.026C329.48 174.651 329.341 193.383 320.602 203.914C311.863 214.399 297.638 213.98 289.364 202.889Z" fill="white"/>
<path d="M100.778 211.323C96.4548 210.997 94.2235 208.481 93.3403 204.38C92.4571 200.28 91.1556 196.319 90.2259 192.218C89.4356 188.723 87.2974 186.347 84.3224 184.669C83.0208 183.924 81.5333 183.411 79.9064 182.712C80.7431 182.479 81.2544 182.339 81.8122 182.199C89.1567 180.382 92.8755 175.676 92.643 168.36C92.4571 161.883 88.0411 157.223 80.9755 155.871C79.4415 155.592 77.954 155.499 76.4201 155.499C67.7275 155.499 59.035 155.499 50.3424 155.499C51.5975 156.71 53.085 156.384 54.4795 156.337C55.967 156.291 56.5713 156.57 56.5248 158.294C56.4783 175.303 56.4783 192.358 56.5248 209.413C56.5248 211.09 55.967 211.37 54.4795 211.37C53.085 211.37 51.551 210.811 50.017 212.022H69.1685C69.1685 211.789 69.1685 211.556 69.215 211.323C67.5881 211.323 66.0076 211.277 64.3806 211.323C63.265 211.37 62.8002 211.09 62.8467 209.879C62.8932 201.305 62.8932 192.777 62.8467 184.203C62.8467 183.038 63.265 182.665 64.3806 182.712C67.867 182.759 71.3068 182.665 74.7466 183.131C79.7204 183.877 82.1376 186.02 83.4392 190.913C84.5548 195.2 85.8099 199.441 86.7396 203.774C88.1806 210.438 93.3868 213.467 101.382 211.789C101.057 211.603 100.917 211.323 100.778 211.323ZM64.799 181.547C63.2185 181.454 62.6607 180.801 62.7072 179.124C62.8467 175.722 62.7537 172.367 62.7537 168.966C62.7537 165.471 62.7537 162.022 62.7537 158.574C62.7537 157.782 62.5678 156.99 63.8228 156.85C68.6572 156.384 73.4916 155.825 78.2329 156.99C82.1376 157.968 84.6478 160.531 85.7169 164.445C86.5071 167.381 86.6001 170.317 85.8099 173.299C84.6013 178.099 81.2079 181.081 76.3736 181.687C72.5154 182.153 68.6572 181.827 64.799 181.547Z" fill="white"/>
<path d="M133.084 155.219C117.28 155.219 104.589 167.94 104.589 183.83C104.589 199.72 117.326 212.442 133.131 212.395C148.935 212.349 161.719 199.581 161.719 183.784C161.672 168.034 148.889 155.266 133.084 155.219ZM148.703 203.495C138.709 216.076 121.184 213.374 114.305 198.183C112.213 193.569 111.237 188.723 111.283 185.927C111.376 176.514 113.096 169.944 117.559 164.259C126.112 153.402 140.196 153.402 148.796 164.213C157.117 174.79 157.07 192.917 148.703 203.495Z" fill="white"/>
<path d="M491.059 194.082C490.548 194.828 490.78 195.76 490.687 196.552C489.944 204.939 486.132 209.692 478.601 210.904C472.93 211.789 467.166 211.09 461.449 211.277C460.473 211.277 460.519 210.624 460.519 209.972C460.519 201.584 460.519 193.197 460.519 184.809C460.519 184.063 460.519 183.364 461.588 183.364C465.539 183.411 469.491 183.131 473.302 184.343C476.928 185.508 478.508 188.257 479.299 191.799V172.973C478.88 173.579 478.694 173.765 478.694 173.952C477.858 178.891 475.812 180.848 470.839 181.64C467.957 182.06 465.075 182.06 462.146 182.106C460.844 182.106 460.519 181.687 460.519 180.429C460.566 172.926 460.566 165.424 460.519 157.922C460.519 156.803 460.751 156.384 461.96 156.384C467.259 156.477 472.605 156.337 477.904 156.57C483.994 156.85 487.155 160.112 487.805 166.309C487.898 167.055 487.619 167.987 488.456 168.593C488.735 164.911 488.642 161.277 488.781 157.596C488.828 155.871 488.363 155.452 486.643 155.452C474.325 155.545 461.96 155.499 449.642 155.499C449.084 155.499 448.433 155.266 447.504 156.384C449.409 156.384 450.804 156.477 452.198 156.337C453.732 156.198 454.244 156.664 454.244 158.295C454.197 175.35 454.197 192.358 454.244 209.366C454.244 211.09 453.593 211.277 452.152 211.277C450.804 211.277 449.27 210.718 447.736 211.883C448.294 212.022 448.526 212.116 448.759 212.116C462.564 212.116 476.324 212.116 490.13 212.162C491.478 212.162 491.71 211.65 491.71 210.485C491.663 205.499 491.71 200.466 491.664 195.48C491.617 195.014 491.942 194.315 491.059 194.082Z" fill="white"/>
<path d="M440.856 210.624C440.81 205.545 440.856 200.466 440.81 195.387C440.81 194.874 441.042 194.175 440.113 194.129C439.648 194.688 439.88 195.34 439.834 195.993C439.276 204.753 435.371 209.786 427.608 210.997C421.937 211.883 416.173 211.184 410.456 211.323C409.293 211.37 409.479 210.485 409.479 209.786C409.479 201.538 409.526 193.336 409.433 185.089C409.433 183.644 409.944 183.271 411.246 183.364C413.756 183.504 416.266 183.364 418.73 183.644C424.819 184.296 427.422 186.72 427.887 191.659C427.887 191.706 428.12 191.752 428.445 191.892V173.532C426.353 179.217 424.959 180.755 420.217 181.547C417.103 182.106 413.988 182.06 410.827 182.06C409.572 182.06 409.386 181.5 409.386 180.429C409.433 172.926 409.433 165.424 409.386 157.922C409.386 156.85 409.572 156.337 410.827 156.337C416.22 156.431 421.612 156.244 427.004 156.524C432.814 156.803 435.65 159.553 436.626 165.424C436.812 166.496 436.905 167.568 437.045 168.733C438.114 168.127 437.695 167.335 437.742 166.682C437.788 163.7 437.649 160.718 437.788 157.735C437.881 155.918 437.416 155.452 435.557 155.452C423.285 155.545 411.06 155.499 398.788 155.499C398.137 155.499 397.487 155.592 396.836 155.685C396.836 155.918 396.836 156.151 396.836 156.384C398.37 156.384 399.904 156.477 401.438 156.337C402.693 156.244 403.065 156.617 403.065 157.922C403.018 175.21 403.018 192.451 403.065 209.739C403.065 211.137 402.553 211.277 401.391 211.277C399.857 211.277 398.277 210.904 396.138 211.789C397.068 211.976 397.347 212.116 397.626 212.116C411.478 212.116 425.377 212.116 439.229 212.162C440.67 212.209 440.856 211.696 440.856 210.624Z" fill="white"/>
<path d="M537.915 155.732C539.17 156.617 540.565 156.431 541.866 156.337C543.586 156.198 544.144 156.617 544.144 158.528C544.051 171.948 544.098 185.322 544.098 198.695C544.098 199.208 544.33 199.814 543.726 200.326C543.215 199.674 542.75 199.021 542.285 198.416C533.778 186.58 525.272 174.744 516.719 162.908C514.952 160.438 513.558 157.036 511.14 155.825C508.677 154.567 505.144 155.452 502.076 155.499C501.007 155.499 499.845 155.172 498.45 156.011C500.356 156.617 501.89 156.337 503.378 156.337C504.493 156.337 505.097 156.477 505.097 157.875C505.051 175.163 505.051 192.404 505.097 209.692C505.097 210.997 504.679 211.277 503.424 211.277C501.89 211.277 500.31 210.904 498.915 211.883H512.349C512.349 211.65 512.349 211.463 512.395 211.23C511.14 211.23 509.932 211.09 508.677 211.277C506.771 211.51 506.12 210.997 506.12 208.854C506.213 193.103 506.167 177.4 506.167 161.65V158.947C519.322 177.167 532.012 194.781 544.702 212.349C544.888 212.302 545.027 212.302 545.213 212.255V209.925C545.213 192.917 545.26 175.862 545.167 158.854C545.167 156.617 545.818 156.104 547.863 156.291C549.025 156.384 550.327 156.664 552 155.685H537.915V155.732Z" fill="white"/>
<path d="M381.868 156.337C383.262 156.291 383.634 156.757 383.588 158.108C383.541 170.55 383.634 182.992 383.541 195.387C383.495 203.868 375.825 211.23 367.458 211.184C358.533 211.09 352.908 205.033 352.908 195.527C352.908 183.178 352.955 170.829 352.862 158.481C352.862 156.757 353.326 156.244 355 156.337C356.348 156.431 357.835 156.664 359.044 155.685H339.939C341.055 156.664 341.938 156.384 342.775 156.384C346.586 156.431 346.586 156.431 346.586 160.345C346.586 171.715 346.586 183.131 346.586 194.501C346.586 202.097 350.305 207.875 357.324 210.718C372.71 216.962 385.958 207.083 385.075 192.544C384.424 181.827 384.936 171.062 384.936 160.345C384.936 156.431 384.936 156.431 388.794 156.384C389.538 156.384 390.56 156.943 391.072 155.638H377.312C378.846 156.664 380.38 156.384 381.868 156.337Z" fill="white"/>
<path d="M139.127 229.87C133.317 229.73 128.947 233.784 128.808 239.376C128.668 245.247 132.759 249.581 138.523 249.767C144.148 249.907 148.564 245.713 148.703 240.121C148.842 234.343 144.752 229.963 139.127 229.87ZM138.662 247.623C134.246 247.577 130.946 244.175 130.992 239.702C131.039 235.228 134.386 231.966 138.848 232.013C143.311 232.06 146.518 235.415 146.472 239.935C146.379 244.362 143.078 247.623 138.662 247.623Z" fill="white"/>
<path d="M315.628 238.816C315.395 238.816 315.163 238.816 314.884 238.816C314.14 238.77 313.675 238.91 313.722 239.842C313.722 240.82 314.326 240.82 314.977 240.82C316.046 240.82 317.069 240.82 318.138 240.82C318.603 240.82 319.114 240.68 319.439 241.193C320.276 242.451 319.254 246.179 317.859 246.878C314.745 248.416 310.886 247.623 308.609 245.014C306.377 242.451 306.145 238.164 308.051 235.322C310.607 231.5 315.07 230.895 320.044 233.784C320.416 232.386 320.276 231.407 318.742 230.662C314.466 228.658 308.795 230.196 306.099 234.157C303.449 238.024 304.1 243.756 307.493 247.018C310.979 250.326 316.883 250.652 320.602 247.763C321.485 247.064 321.903 246.319 321.903 245.154C321.996 238.677 322.043 238.677 315.628 238.816Z" fill="white"/>
<path d="M281.787 230.056C280.439 230.009 280.672 230.848 280.672 231.64V244.501C276.023 239.282 271.747 234.483 267.191 229.357C267.191 235.741 267.145 241.566 267.238 247.344C267.238 248.089 266.54 249.394 268.307 249.394C269.98 249.394 269.515 248.229 269.515 247.344C269.562 243.43 269.515 239.515 269.515 235.089C274.024 240.214 278.162 244.874 282.717 250C282.717 243.43 282.717 237.465 282.717 231.5C282.763 230.848 282.996 230.103 281.787 230.056Z" fill="white"/>
<path d="M353.977 247.111C353.094 247.157 352.211 247.111 351.328 247.111C345.703 247.111 345.75 247.111 346.121 241.566C346.214 240.447 346.586 240.214 347.562 240.261C349.515 240.308 351.421 240.261 353.373 240.308C354.117 240.308 354.349 240.028 354.303 239.282C354.303 238.583 354.163 238.211 353.373 238.257C352.304 238.304 351.281 238.257 350.212 238.257C345.982 238.257 346.028 238.257 346.075 234.017C346.075 232.619 346.54 232.199 347.888 232.246C349.794 232.339 351.746 232.246 353.698 232.293C354.582 232.293 354.767 231.92 354.814 231.128C354.86 230.242 354.442 230.056 353.698 230.056C350.863 230.103 348.074 230.103 345.238 230.056C344.169 230.009 343.844 230.429 343.89 231.454C343.937 234.203 343.89 236.952 343.89 239.655C343.89 242.404 343.89 245.154 343.89 247.856C343.89 248.555 343.751 249.348 344.913 249.348C347.981 249.348 351.049 249.348 354.07 249.348C354.86 249.348 355 248.928 355.046 248.276C355.046 247.577 354.86 247.064 353.977 247.111Z" fill="white"/>
<path d="M418.544 247.111C417.661 247.157 416.777 247.111 415.894 247.111C410.595 247.111 410.642 247.111 410.827 241.752C410.874 240.634 411.106 240.168 412.315 240.261C414.081 240.354 415.848 240.308 417.614 240.308C418.265 240.308 418.916 240.447 418.962 239.422C419.009 238.304 418.358 238.257 417.568 238.304C416.684 238.304 415.801 238.304 414.918 238.304C410.734 238.304 410.827 238.304 410.827 234.063C410.827 232.712 411.199 232.246 412.594 232.339C414.453 232.432 416.313 232.339 418.172 232.386C419.102 232.432 419.474 232.06 419.474 231.128C419.474 230.103 418.869 230.196 418.218 230.196C415.476 230.196 412.733 230.242 409.991 230.149C408.782 230.103 408.503 230.569 408.55 231.687C408.643 234.343 408.596 236.999 408.596 239.655C408.596 242.404 408.596 245.154 408.596 247.903C408.596 248.649 408.364 249.534 409.712 249.534C412.687 249.487 415.662 249.487 418.637 249.534C419.334 249.534 419.659 249.254 419.659 248.509C419.567 247.67 419.474 247.111 418.544 247.111Z" fill="white"/>
<path d="M228.516 249.208C230.097 249.627 231.166 249.394 231.491 247.857C232.049 245.061 233.816 244.129 236.512 244.595C237.116 244.688 237.813 244.688 238.417 244.595C240.695 244.175 241.997 245.061 242.555 247.344C242.926 248.975 243.81 249.953 245.808 249.161C243.019 242.731 240.184 236.3 237.162 229.31C234.141 236.3 231.352 242.777 228.516 249.208ZM233.862 242.451C234.885 239.981 235.907 237.605 237.116 234.716C238.325 237.512 239.347 239.842 240.416 242.451H233.862Z" fill="white"/>
<path d="M448.712 239.189C447.271 238.304 445.784 237.512 444.343 236.626C443.366 236.021 442.995 235.042 443.32 233.877C443.599 232.712 444.482 232.199 445.598 232.013C447.364 231.733 448.945 232.153 450.432 233.551C451.176 230.988 449.874 230.149 447.968 229.916C447.039 229.823 446.016 229.823 445.086 229.963C443.087 230.242 441.6 231.314 441.089 233.318C440.577 235.368 441.135 237.185 442.995 238.35C444.575 239.329 446.155 240.214 447.736 241.193C449.27 242.125 450.525 243.336 449.828 245.294C449.177 247.158 447.457 247.484 445.691 247.53C443.459 247.577 441.879 246.132 439.973 244.734C440.205 245.993 439.648 247.018 440.577 247.763C442.948 249.674 445.737 250.047 448.573 249.254C450.525 248.695 451.919 247.344 452.198 245.154C452.57 242.358 450.943 240.587 448.712 239.189Z" fill="white"/>
<path d="M177.523 239.236C176.082 238.35 174.595 237.558 173.154 236.673C172.178 236.067 171.666 235.135 171.992 233.97C172.317 232.759 173.2 232.153 174.455 231.966C176.222 231.733 177.756 232.246 179.383 233.737C179.243 232.293 179.708 231.361 178.685 230.568C176.686 229.077 171.992 229.73 170.504 231.78C168.877 233.97 169.528 236.859 172.131 238.63C173.665 239.655 175.292 240.494 176.919 241.426C178.406 242.311 179.104 243.663 178.592 245.294C178.127 246.878 176.686 247.344 175.199 247.484C172.782 247.717 170.922 246.459 169.017 244.828C168.924 245.993 168.505 246.971 169.388 247.717C171.713 249.72 174.502 250.047 177.337 249.254C179.29 248.695 180.731 247.344 181.056 245.2C181.428 242.404 179.754 240.587 177.523 239.236Z" fill="white"/>
<path d="M108.308 247.111C106.774 247.157 105.24 247.018 103.753 247.157C102.079 247.344 101.754 246.598 101.8 245.107C101.893 240.587 101.847 236.114 101.847 231.594C101.847 230.755 101.986 230.056 100.685 230.056C99.3832 230.056 99.5692 230.848 99.5692 231.64C99.5692 234.296 99.5692 236.952 99.5692 239.609C99.5692 242.358 99.6157 245.061 99.5692 247.81C99.5692 248.835 99.7551 249.441 101.01 249.394C103.52 249.301 105.984 249.348 108.494 249.394C109.377 249.394 109.842 249.161 109.842 248.183C109.703 247.158 109.098 247.111 108.308 247.111Z" fill="white"/>
<path d="M385.726 247.111C384.192 247.111 382.658 246.971 381.171 247.158C379.497 247.344 379.218 246.645 379.218 245.107C379.311 240.68 379.265 236.253 379.265 231.827C379.265 230.988 379.544 230.009 378.056 230.056C376.476 230.056 376.987 231.174 376.987 231.92C376.94 234.483 376.987 237.092 376.987 239.655C376.987 242.404 377.033 245.107 376.987 247.856C376.987 248.882 377.126 249.487 378.428 249.441C380.938 249.348 383.402 249.394 385.912 249.441C386.795 249.441 387.26 249.254 387.213 248.229C387.167 247.111 386.516 247.111 385.726 247.111Z" fill="white"/>
<path d="M269.655 113.933C268.446 112.535 267.005 111.323 265.843 109.879C258.638 101.025 255.663 90.6337 255.524 79.4035C255.384 66.3094 258.731 54.4268 267.982 44.6412C268.725 43.8956 269.144 43.1966 268.121 42.4977C267.191 41.7987 266.726 39.8882 264.867 41.1929C262.217 43.0568 259.707 45.0606 257.523 47.3905C249.667 55.7782 245.483 65.7036 245.065 79.6365C245.018 87.4185 247.761 96.7381 253.85 104.986C257.476 109.925 261.939 113.933 267.191 117.055C268.958 118.127 269.934 116.682 270.817 115.75C271.7 114.772 270.166 114.492 269.655 113.933Z" fill="white"/>
</svg>
