<svg width="120" height="20" viewBox="0 0 120 20" fill="none" xmlns="http://www.w3.org/2000/svg">
<path d="M9.1033 3.48313C9.47013 2.73997 10.5299 2.73997 10.8967 3.48313L12.3426 6.41226C12.4881 6.70711 12.7693 6.91157 13.0946 6.95912L16.3296 7.43195C17.1495 7.5518 17.4763 8.55964 16.8827 9.1378L14.5435 11.4162C14.3076 11.6459 14.1999 11.9771 14.2556 12.3016L14.8074 15.5191C14.9476 16.3361 14.09 16.9591 13.3564 16.5733L10.4655 15.0529C10.1741 14.8997 9.82594 14.8997 9.53455 15.0529L6.64364 16.5733C5.91001 16.9591 5.05246 16.3361 5.19258 15.5191L5.74443 12.3016C5.80009 11.9771 5.69242 11.6459 5.45655 11.4162L3.11735 9.1378C2.52376 8.55964 2.85054 7.5518 3.67046 7.43195L6.90537 6.95912C7.23073 6.91157 7.51191 6.70711 7.65745 6.41226L9.1033 3.48313Z" fill="#FFB800"/>
<path d="M34.1033 3.48313C34.4701 2.73997 35.5299 2.73997 35.8967 3.48313L37.3426 6.41226C37.4881 6.70711 37.7693 6.91157 38.0946 6.95912L41.3296 7.43195C42.1495 7.5518 42.4763 8.55964 41.8827 9.1378L39.5435 11.4162C39.3076 11.6459 39.1999 11.9771 39.2556 12.3016L39.8074 15.5191C39.9476 16.3361 39.09 16.9591 38.3564 16.5733L35.4655 15.0529C35.1741 14.8997 34.8259 14.8997 34.5346 15.0529L31.6436 16.5733C30.91 16.9591 30.0525 16.3361 30.1926 15.5191L30.7444 12.3016C30.8001 11.9771 30.6924 11.6459 30.4565 11.4162L28.1174 9.1378C27.5238 8.55964 27.8505 7.5518 28.6705 7.43195L31.9054 6.95912C32.2307 6.91157 32.5119 6.70711 32.6575 6.41226L34.1033 3.48313Z" fill="#FFB800"/>
<path d="M59.1033 3.48313C59.4701 2.73997 60.5299 2.73997 60.8967 3.48313L62.3426 6.41226C62.4881 6.70711 62.7693 6.91157 63.0946 6.95912L66.3296 7.43195C67.1495 7.5518 67.4763 8.55964 66.8827 9.1378L64.5435 11.4162C64.3076 11.6459 64.1999 11.9771 64.2556 12.3016L64.8074 15.5191C64.9476 16.3361 64.09 16.9591 63.3564 16.5733L60.4655 15.0529C60.1741 14.8997 59.8259 14.8997 59.5346 15.0529L56.6436 16.5733C55.91 16.9591 55.0525 16.3361 55.1926 15.5191L55.7444 12.3016C55.8001 11.9771 55.6924 11.6459 55.4565 11.4162L53.1174 9.1378C52.5238 8.55964 52.8505 7.5518 53.6705 7.43195L56.9054 6.95912C57.2307 6.91157 57.5119 6.70711 57.6575 6.41226L59.1033 3.48313Z" fill="#FFB800"/>
<path d="M84.1033 3.48313C84.4701 2.73997 85.5299 2.73997 85.8967 3.48313L87.3426 6.41226C87.4881 6.70711 87.7693 6.91157 88.0946 6.95912L91.3296 7.43195C92.1495 7.5518 92.4763 8.55964 91.8827 9.1378L89.5435 11.4162C89.3076 11.6459 89.1999 11.9771 89.2556 12.3016L89.8074 15.5191C89.9476 16.3361 89.09 16.9591 88.3564 16.5733L85.4655 15.0529C85.1741 14.8997 84.8259 14.8997 84.5346 15.0529L81.6436 16.5733C80.91 16.9591 80.0525 16.3361 80.1926 15.5191L80.7444 12.3016C80.8001 11.9771 80.6924 11.6459 80.4565 11.4162L78.1174 9.1378C77.5238 8.55964 77.8505 7.5518 78.6705 7.43195L81.9054 6.95912C82.2307 6.91157 82.5119 6.70711 82.6575 6.41226L84.1033 3.48313Z" fill="#FFB800"/>
<path d="M109.103 3.48313C109.47 2.73997 110.53 2.73997 110.897 3.48313L112.343 6.41226C112.488 6.70711 112.769 6.91157 113.095 6.95912L116.33 7.43195C117.149 7.5518 117.476 8.55964 116.883 9.1378L114.543 11.4162C114.308 11.6459 114.2 11.9771 114.256 12.3016L114.807 15.5191C114.948 16.3361 114.09 16.9591 113.356 16.5733L110.465 15.0529C110.174 14.8997 109.826 14.8997 109.535 15.0529L106.644 16.5733C105.91 16.9591 105.052 16.3361 105.193 15.5191L105.744 12.3016C105.8 11.9771 105.692 11.6459 105.457 11.4162L103.117 9.1378C102.524 8.55964 102.851 7.5518 103.67 7.43195L106.905 6.95912C107.231 6.91157 107.512 6.70711 107.657 6.41226L109.103 3.48313Z" fill="#FFB800"/>
</svg>
