<svg width="59" height="24" viewBox="0 0 59 24" fill="none" xmlns="http://www.w3.org/2000/svg">
<rect width="58.9961" height="23.9961" rx="6.85547" fill="white"/>
<path d="M15.3849 5.43866C15.6152 4.89841 16.3809 4.89841 16.6112 5.43866L17.99 8.6738C18.0863 8.89988 18.2993 9.0546 18.5441 9.07637L22.0469 9.38795C22.6319 9.43999 22.8685 10.1683 22.4259 10.5542L19.7751 12.8652C19.5899 13.0267 19.5086 13.2771 19.5635 13.5166L20.3496 16.9443C20.4809 17.5167 19.8613 17.9668 19.3575 17.6651L16.3405 15.8582C16.1297 15.732 15.8664 15.732 15.6556 15.8582L12.6386 17.6651C12.1348 17.9668 11.5152 17.5167 11.6465 16.9443L12.4326 13.5166C12.4875 13.2771 12.4062 13.0267 12.221 12.8652L9.57023 10.5542C9.12757 10.1683 9.36421 9.43999 9.94917 9.38795L13.452 9.07637C13.6968 9.0546 13.9098 8.89988 14.0061 8.6738L15.3849 5.43866Z" fill="#FFD166"/>
<path d="M28.717 15.1088V13.6422L33.0373 6.81623H34.2603V8.9043H33.5146L30.6062 13.513V13.5925H36.6367V15.1088H28.717ZM33.5742 16.998V14.6614L33.5941 14.0051V6.81623H35.3342V16.998H33.5742ZM39.0666 17.1074C38.765 17.1074 38.5065 17.0014 38.291 16.7892C38.0756 16.5771 37.9695 16.3186 37.9728 16.0137C37.9695 15.7154 38.0756 15.4602 38.291 15.248C38.5065 15.0359 38.765 14.9299 39.0666 14.9299C39.3583 14.9299 39.6118 15.0359 39.8272 15.248C40.046 15.4602 40.157 15.7154 40.1603 16.0137C40.157 16.2158 40.104 16.3998 40.0012 16.5655C39.9018 16.7312 39.7692 16.8638 39.6035 16.9632C39.4411 17.0594 39.2621 17.1074 39.0666 17.1074ZM45.3656 17.1919C44.5469 17.1919 43.8443 16.9848 43.2576 16.5705C42.6743 16.1529 42.2252 15.5513 41.9103 14.7658C41.5988 13.977 41.443 13.0274 41.443 11.9171C41.4463 10.8068 41.6038 9.86216 41.9153 9.08327C42.2302 8.30108 42.6793 7.70449 43.2626 7.2935C43.8493 6.88252 44.5502 6.67702 45.3656 6.67702C46.1809 6.67702 46.8819 6.88252 47.4686 7.2935C48.0552 7.70449 48.5043 8.30108 48.8159 9.08327C49.1307 9.86547 49.2882 10.8101 49.2882 11.9171C49.2882 13.0307 49.1307 13.9819 48.8159 14.7708C48.5043 15.5563 48.0552 16.1562 47.4686 16.5705C46.8852 16.9848 46.1842 17.1919 45.3656 17.1919ZM45.3656 15.6358C46.002 15.6358 46.5041 15.3226 46.872 14.6962C47.2432 14.0665 47.4288 13.1401 47.4288 11.9171C47.4288 11.1084 47.3443 10.4289 47.1752 9.87873C47.0062 9.32854 46.7676 8.91424 46.4593 8.63583C46.1511 8.35411 45.7865 8.21325 45.3656 8.21325C44.7325 8.21325 44.2321 8.52811 43.8642 9.15785C43.4963 9.78427 43.3107 10.704 43.3074 11.9171C43.304 12.7291 43.3852 13.4119 43.551 13.9654C43.72 14.5189 43.9586 14.9365 44.2669 15.2182C44.5751 15.4966 44.9413 15.6358 45.3656 15.6358Z" fill="#1D1D1F"/>
</svg>
