<svg width="19" height="19" viewBox="0 0 19 19" fill="none" xmlns="http://www.w3.org/2000/svg">
<path d="M9.14078 1.82877C4.94371 1.82877 1.52359 5.24888 1.52359 9.44595C1.52359 13.643 4.94371 17.0631 9.14078 17.0631C13.3378 17.0631 16.758 13.643 16.758 9.44595C16.758 5.24888 13.3378 1.82877 9.14078 1.82877ZM12.6142 8.17388L9.48356 10.5276C9.46833 10.5352 9.44547 10.5428 9.43023 10.5581C9.40738 10.5657 9.39214 10.5733 9.36928 10.5809C9.30073 10.619 9.21695 10.6419 9.14078 10.6419C9.06461 10.6419 8.98843 10.619 8.91987 10.5885C8.90464 10.5809 8.88942 10.5733 8.86657 10.5657C8.85134 10.5581 8.83608 10.5504 8.82085 10.5428L6.53569 8.97369C6.2767 8.7985 6.20817 8.44048 6.39098 8.1815C6.56618 7.92251 6.92417 7.85396 7.18316 8.02916L9.12555 9.36216L11.9287 7.25982C12.18 7.06939 12.538 7.12271 12.7285 7.37408C12.9189 7.62544 12.8656 7.98345 12.6142 8.17388Z" fill="#1D1D1F"/>
</svg>
