<svg width="14" height="18" viewBox="0 0 14 18" fill="none" xmlns="http://www.w3.org/2000/svg">
<path d="M13.1728 8.30894C13.1515 8.21879 13.1082 8.13529 13.0469 8.06586C12.9856 7.99643 12.908 7.94323 12.8212 7.91097L8.77049 6.39152L9.80127 1.2355C9.82461 1.1157 9.80836 0.991566 9.75496 0.881818C9.70156 0.77207 9.61391 0.682668 9.50524 0.627104C9.39657 0.571539 9.27278 0.552826 9.15254 0.57379C9.0323 0.594753 8.92215 0.654254 8.83869 0.743315L0.963695 9.18082C0.899735 9.24821 0.853466 9.3304 0.829021 9.42004C0.804576 9.50968 0.802717 9.60398 0.823609 9.69451C0.844502 9.78505 0.887495 9.869 0.948749 9.93886C1.01 10.0087 1.08761 10.0623 1.17463 10.0949L5.22674 11.6143L4.19877 16.7647C4.17543 16.8845 4.19169 17.0087 4.24509 17.1184C4.29849 17.2282 4.38614 17.3176 4.49481 17.3731C4.60348 17.4287 4.72727 17.4474 4.84751 17.4264C4.96774 17.4055 5.0779 17.346 5.16135 17.2569L13.0364 8.81941C13.0992 8.752 13.1444 8.6702 13.1682 8.58119C13.192 8.49218 13.1936 8.39869 13.1728 8.30894ZM5.6901 15.047L6.42627 11.364C6.45262 11.2334 6.43174 11.0977 6.36736 10.981C6.30298 10.8643 6.19927 10.7743 6.07471 10.727L2.3594 9.33128L8.30924 2.95675L7.57377 6.63972C7.54743 6.77034 7.5683 6.90607 7.63269 7.02273C7.69707 7.1394 7.80078 7.22942 7.92534 7.27675L11.6378 8.66894L5.6901 15.047Z" fill="#7D8088"/>
</svg>
