<svg width="16" height="15" viewBox="0 0 16 15" fill="none" xmlns="http://www.w3.org/2000/svg">
<path d="M5.46885 7.56253H1.8126C1.65693 7.562 1.50307 7.52917 1.36074 7.46611C1.21841 7.40305 1.09071 7.31114 0.98573 7.1962C0.879238 7.07946 0.798181 6.94186 0.747706 6.79213C0.697231 6.6424 0.67844 6.48381 0.692527 6.32643C0.788046 5.27247 1.11156 4.25188 1.64066 3.33536C2.16977 2.41884 2.8918 1.62831 3.75675 1.01854C3.88452 0.928167 4.02974 0.865446 4.18313 0.834388C4.33652 0.803329 4.4947 0.804616 4.64756 0.838167C4.80043 0.871718 4.94461 0.936794 5.07089 1.02923C5.19718 1.12168 5.30278 1.23945 5.38096 1.37503L7.20909 4.53909C7.24602 4.60308 7.26999 4.67371 7.27963 4.74697C7.28926 4.82022 7.28438 4.89465 7.26525 4.96601C7.24612 5.03738 7.21312 5.10427 7.16813 5.16288C7.12315 5.22149 7.06706 5.27067 7.00307 5.3076C6.93908 5.34454 6.86845 5.36851 6.7952 5.37814C6.72194 5.38778 6.64751 5.38289 6.57615 5.36376C6.50479 5.34463 6.43789 5.31163 6.37928 5.26665C6.32067 5.22166 6.27149 5.16558 6.23456 5.10159L4.40643 1.93753C3.67442 2.45317 3.06329 3.12184 2.6154 3.89717C2.16752 4.6725 1.89359 5.53595 1.8126 6.42768C1.81247 6.42981 1.81284 6.43195 1.8137 6.43391C1.81455 6.43586 1.81587 6.43759 1.81753 6.43893L5.46885 6.43753C5.61804 6.43753 5.76111 6.49679 5.8666 6.60228C5.97209 6.70777 6.03135 6.85084 6.03135 7.00003C6.03135 7.14921 5.97209 7.29228 5.8666 7.39777C5.76111 7.50326 5.61804 7.56253 5.46885 7.56253ZM15.3077 6.32643C15.2122 5.27247 14.8886 4.25188 14.3595 3.33536C13.8304 2.41884 13.1084 1.62831 12.2435 1.01854C12.1157 0.928167 11.9705 0.865446 11.8171 0.834388C11.6637 0.803329 11.5055 0.804616 11.3526 0.838167C11.1998 0.871718 11.0556 0.936794 10.9293 1.02923C10.803 1.12168 10.6974 1.23945 10.6192 1.37503L8.79464 4.53909C8.7577 4.60308 8.73373 4.67371 8.7241 4.74697C8.71446 4.82022 8.71935 4.89465 8.73848 4.96601C8.77711 5.11014 8.87142 5.23301 9.00065 5.3076C9.12988 5.3822 9.28345 5.4024 9.42758 5.36376C9.49894 5.34463 9.56584 5.31163 9.62445 5.26665C9.68306 5.22166 9.73223 5.16558 9.76917 5.10159L11.5973 1.93753C12.3285 2.45367 12.9389 3.12252 13.3861 3.8978C13.8334 4.67309 14.1069 5.53629 14.1876 6.42768C14.1876 6.4326 14.1876 6.43612 14.1876 6.43753H10.5314C10.3822 6.43753 10.2391 6.49679 10.1336 6.60228C10.0281 6.70777 9.96886 6.85084 9.96886 7.00003C9.96886 7.14921 10.0281 7.29228 10.1336 7.39777C10.2391 7.50326 10.3822 7.56253 10.5314 7.56253H14.1876C14.3433 7.562 14.4971 7.52917 14.6395 7.46611C14.7818 7.40305 14.9095 7.31114 15.0145 7.1962C15.121 7.07946 15.202 6.94186 15.2525 6.79213C15.303 6.6424 15.3218 6.48381 15.3077 6.32643ZM9.753 8.91112C9.71606 8.84713 9.66688 8.79104 9.60827 8.74606C9.54966 8.70108 9.48277 8.66808 9.4114 8.64895C9.34004 8.62982 9.26561 8.62493 9.19236 8.63456C9.11911 8.6442 9.04847 8.66817 8.98448 8.7051C8.92049 8.74204 8.8644 8.79121 8.81942 8.84982C8.77444 8.90843 8.74144 8.97533 8.72231 9.04669C8.70318 9.11806 8.69829 9.19249 8.70793 9.26574C8.71756 9.33899 8.74153 9.40963 8.77846 9.47362L10.5953 12.6187C9.78161 12.9935 8.89635 13.1875 8.00046 13.1875C7.10457 13.1875 6.21931 12.9935 5.40557 12.6187L7.22175 9.47362C7.25868 9.40963 7.28265 9.33899 7.29228 9.26574C7.30192 9.19249 7.29703 9.11806 7.2779 9.04669C7.25877 8.97533 7.22577 8.90843 7.18079 8.84982C7.13581 8.79121 7.07972 8.74204 7.01573 8.7051C6.95174 8.66817 6.8811 8.6442 6.80785 8.63456C6.7346 8.62493 6.66017 8.62982 6.5888 8.64895C6.51744 8.66808 6.45055 8.70108 6.39193 8.74606C6.33332 8.79104 6.28415 8.84713 6.24721 8.91112L4.43175 12.0562C4.35358 12.1915 4.30444 12.3415 4.28746 12.4968C4.27048 12.6521 4.28603 12.8093 4.33313 12.9582C4.38022 13.1072 4.45783 13.2447 4.561 13.362C4.66417 13.4793 4.79065 13.5739 4.93237 13.6396C5.89432 14.083 6.94092 14.3125 8.0001 14.3125C9.05929 14.3125 10.1059 14.083 11.0678 13.6396C11.2096 13.5739 11.336 13.4793 11.4392 13.362C11.5424 13.2447 11.62 13.1072 11.6671 12.9582C11.7142 12.8093 11.7297 12.6521 11.7128 12.4968C11.6958 12.3415 11.6466 12.1915 11.5685 12.0562L9.753 8.91112ZM8.0001 7.84378C8.16698 7.84378 8.33011 7.79429 8.46887 7.70158C8.60762 7.60887 8.71577 7.47709 8.77963 7.32291C8.84349 7.16874 8.8602 6.99909 8.82764 6.83542C8.79509 6.67175 8.71473 6.5214 8.59673 6.4034C8.47873 6.2854 8.32838 6.20504 8.16471 6.17249C8.00104 6.13993 7.83139 6.15664 7.67722 6.2205C7.52304 6.28436 7.39126 6.39251 7.29855 6.53126C7.20584 6.67002 7.15635 6.83315 7.15635 7.00003C7.15635 7.2238 7.24525 7.43841 7.40348 7.59665C7.56172 7.75488 7.77633 7.84378 8.0001 7.84378Z" fill="white"/>
</svg>
